<?xml version="1.0" encoding="UTF-8" standalone="no"?>
<svg
   xmlns:dc="http://purl.org/dc/elements/1.1/"
   xmlns:cc="http://creativecommons.org/ns#"
   xmlns:rdf="http://www.w3.org/1999/02/22-rdf-syntax-ns#"
   xmlns:svg="http://www.w3.org/2000/svg"
   xmlns="http://www.w3.org/2000/svg"
   xmlns:sodipodi="http://sodipodi.sourceforge.net/DTD/sodipodi-0.dtd"
   xmlns:inkscape="http://www.inkscape.org/namespaces/inkscape"
   height="400"
   width="400"
   version="1.1"
   viewBox="0 0 399.99998 399.99998"
   id="svg2"
   inkscape:version="0.91 r13725"
   sodipodi:docname="favicon.svg"
   inkscape:export-filename="/home/lip/grafica/flowinspace/master/img/favicon72png"
   inkscape:export-xdpi="16.200001"
   inkscape:export-ydpi="16.200001">
  <metadata
     id="metadata12">
    <rdf:RDF>
      <cc:Work
         rdf:about="">
        <dc:format>image/svg+xml</dc:format>
        <dc:type
           rdf:resource="http://purl.org/dc/dcmitype/StillImage" />
      </cc:Work>
    </rdf:RDF>
  </metadata>
  <defs
     id="defs10" />
  <sodipodi:namedview
     pagecolor="#ffffff"
     bordercolor="#666666"
     borderopacity="1"
     objecttolerance="10"
     gridtolerance="10"
     guidetolerance="10"
     inkscape:pageopacity="0"
     inkscape:pageshadow="2"
     inkscape:window-width="1366"
     inkscape:window-height="715"
     id="namedview8"
     showgrid="false"
     inkscape:zoom="1.3387941"
     inkscape:cx="547.40641"
     inkscape:cy="136.34705"
     inkscape:window-x="0"
     inkscape:window-y="0"
     inkscape:window-maximized="1"
     inkscape:current-layer="svg2">
    <sodipodi:guide
       position="0,0"
       orientation="0,400"
       id="guide4140" />
    <sodipodi:guide
       position="399.99998,0"
       orientation="-400,0"
       id="guide4142" />
    <sodipodi:guide
       position="399.99998,399.99998"
       orientation="0,-400"
       id="guide4144" />
    <sodipodi:guide
       position="0,399.99998"
       orientation="400,0"
       id="guide4146" />
  </sodipodi:namedview>
  <circle
     style="opacity:1;fill:#ffffff;fill-opacity:1;fill-rule:nonzero;stroke:none;stroke-width:4;stroke-linecap:round;stroke-linejoin:round;stroke-miterlimit:4;stroke-dasharray:none;stroke-dashoffset:0;stroke-opacity:0.14682539"
     id="path4148"
     cx="199.99997"
     cy="199.99997"
     r="199.97661" />
  <g
     id="g4234"
     transform="matrix(1.1471054,0,0,1.1471054,20.688838,-52.149746)">
    <path
       sodipodi:nodetypes="ccccccccccccccccccccc"
       inkscape:connector-curvature="0"
       id="path4146"
       d="m -224.87656,93.58867 c -28.12974,-0.241802 -55.8542,1.898866 -80.65093,16.75556 -42.03118,26.09587 -43.14067,92.7104 -7.78755,124.69008 7.23989,-0.40312 14.99426,-13.15712 5.70376,-15.55136 -23.04247,-23.35048 -22.11082,-64.74169 -1.39393,-89.15925 16.55169,-17.58988 42.28961,-20.7594 65.16369,-21.89257 l 0,106.99806 c -6.44814,3.34264 -27.06772,-6.30586 -26.21432,3.86424 1.54092,14.79246 22.15578,2.51288 26.21432,9.88536 -1.79224,23.1848 3.64372,47.50736 -2.9348,70.0756 -0.69226,6.04528 -12.08782,3.34264 -4.67962,10.5256 8.36824,8.10742 18.8416,4.03024 19.20916,-6.4245 4.55634,-25.8159 1.05008,-52.29582 2.15244,-78.3728 13.19724,-0.85318 34.09635,4.7178 45.19081,-1.0903 5.21552,-2.70244 6.47184,-10.71528 -4.5516,-10.5256 -12.01902,0.21232 -43.48623,8.62904 -40.39731,-9.4824 l 0,-97.27151 c 21.80738,-0.74201 60.35194,2.7191 81.80602,-0.15408 3.98264,-2.58161 5.76056,-8.700194 4.36208,-12.858258 -21.19352,1.799294 -59.31134,0.173152 -81.19222,-0.01085 z"
       style="fill:#303030" />
    <path
       inkscape:connector-curvature="0"
       id="path4139"
       d="m -123.83503,159.61004 c -35.20294,4.00679 -62.96206,36.53817 -69.07481,70.26227 -4.8344,28.54867 16.48996,52.44652 39.85828,65.25379 16.81443,9.99326 38.32728,25.78204 32.86564,48.34436 -4.07847,21.05949 -34.12971,25.16172 -46.88953,9.99318 -7.12163,5.12763 -8.01599,15.26403 1.12107,18.12586 25.25729,13.21319 61.91494,-3.3867 61.74799,-33.98623 1.59797,-32.3646 -32.67466,-45.1245 -53.54357,-62.39185 -19.7289,-13.45157 -26.26134,-41.21311 -14.20282,-61.86704 12.55707,-22.4192 37.57581,-42.26266 64.40718,-39.54369 17.720621,2.93368 18.507891,26.40217 10.350951,38.73259 -9.229811,16.17052 -25.805631,32.57925 -45.386651,32.17387 3.95917,15.02556 21.87053,9.99328 30.57589,2.57559 22.609781,-14.64383 44.456499,-45.67289 26.950681,-72.17016 -8.4908,-12.23516 -24.923351,-15.2163 -38.780301,-15.50254 z"
       style="fill:#303030" />
    <path
       inkscape:connector-curvature="0"
       id="path4224"
       d="m -125.94139,94.074219 c -2.29411,-0.143039 -4.14591,0.689599 -5.52539,2.068359 -1.37948,1.378761 -2.27744,3.311436 -2.61718,5.351562 -0.33975,2.04013 -0.11905,4.18398 0.71875,5.98047 0.83779,1.79649 2.28334,3.24642 4.42578,3.93359 a 0.2043694,0.2043694 0 0 1 0.0254,0.01 c 7.92098,3.74028 15.92731,-7.3768 10.47851,-13.958986 a 0.2043694,0.2043694 0 0 1 -0.006,-0.0078 c -1.71035,-2.281782 -4.65201,-3.481676 -7.47851,-3.375 a 0.2043694,0.2043694 0 0 1 -0.0215,-0.002 z m -2.59375,27.644531 c -2.26155,0.0528 -3.50491,1.41141 -4.09375,3.22461 -0.58883,1.8132 -0.47269,4.07458 0.084,5.7793 a 0.2043694,0.2043694 0 0 1 0.0117,0.0566 c 0.32405,13.37565 -0.28427,26.74518 -0.23633,40.10547 1.07282,-0.2769 2.4126,-0.2374 3.84375,-0.10352 1.54791,0.1448 3.18735,0.38928 4.625,0.44727 1.43765,0.058 2.66373,-0.0817 3.38672,-0.625 0.36149,-0.27166 0.6084,-0.63789 0.72461,-1.16602 0.11621,-0.52813 0.0926,-1.22267 -0.1211,-2.11523 a 0.2043694,0.2043694 0 0 1 -0.006,-0.041 c -0.35723,-14.09892 1.64518,-28.65362 -1.16797,-42.41992 -1.59578,-2.16709 -4.38666,-3.24772 -7.04687,-3.14258 a 0.2043694,0.2043694 0 0 1 -0.004,0 z"
       style="fill:#303030" />
  </g>
  <path
     style="opacity:1;fill:#303030;fill-opacity:1;fill-rule:nonzero;stroke:none;stroke-width:4;stroke-linecap:round;stroke-linejoin:round;stroke-miterlimit:4;stroke-dasharray:none;stroke-dashoffset:0;stroke-opacity:0.14682539"
     d="M 187.07422 24.998047 C 160.02114 25.689668 132.53679 32.837602 109.94141 48.044922 C 109.31361 52.484366 116.04759 51.212439 118.09766 49.367188 C 137.49126 40.685142 157.64436 32.749066 179.15039 31.888672 C 205.58663 29.76104 232.36239 35.626741 256.12305 46.960938 C 259.95002 46.514559 264.42597 53.16741 267.2168 48.980469 C 267.55257 42.53482 258.45758 42.388771 254.4375 39.46875 C 233.63893 29.449125 210.13484 24.732861 187.07422 24.998047 z M 156.09961 56.740234 L 156.0957 56.742188 C 126.00818 56.845522 96.487823 59.989161 69.908203 75.914062 C 21.851391 105.75108 20.584491 181.91815 61.005859 218.48242 C 69.28368 218.02158 78.147804 203.43666 67.525391 200.69922 C 41.179541 174.00124 42.244733 126.67797 65.931641 98.759766 C 84.856136 78.648148 114.28403 75.024021 140.4375 73.728516 L 140.4375 196.06641 C 133.06479 199.88823 109.48925 188.85451 110.46484 200.48242 C 112.22677 217.39571 135.79708 203.35773 140.4375 211.78711 C 138.38811 238.29575 144.60553 266.10451 137.08398 291.9082 C 136.2924 298.82005 123.26212 295.72886 131.73242 303.94141 C 141.3003 313.2113 153.27524 308.55131 153.69531 296.59766 C 158.90504 267.08092 154.89581 236.80381 156.15625 206.98828 C 168.39611 206.19717 186.42935 210.23561 199.57422 208.24609 C 199.24291 209.6879 198.93409 211.13269 198.67188 212.58008 C 193.1443 245.22141 217.52572 272.54633 244.24414 287.18945 C 263.46903 298.61531 288.06704 316.6659 281.82227 342.46289 C 277.15934 366.54123 242.79818 371.23185 228.20898 353.88867 C 220.06661 359.75131 219.04301 371.34117 229.49023 374.61328 C 258.36828 389.72084 300.28267 370.74043 300.0918 335.75391 C 301.91883 298.7496 262.73184 284.16078 238.87109 264.41797 C 216.31364 249.03798 208.84554 217.29644 222.63281 193.68164 C 236.99013 168.04831 265.59758 145.36004 296.27539 148.46875 C 316.53648 151.82311 317.43385 178.65574 308.10742 192.75391 C 297.55447 211.2426 278.60309 230.00465 256.21484 229.54102 C 260.74158 246.72068 281.22019 240.96742 291.17383 232.48633 C 317.02475 215.74299 342.00389 180.26658 321.98828 149.9707 C 313.09069 137.14944 296.5704 133.22561 281.67578 132.40625 C 281.91427 119.02555 282.98295 105.4661 280.33594 92.513672 C 278.51135 90.035881 275.32065 88.799702 272.2793 88.919922 A 0.23366807 0.23366807 0 0 1 272.27539 88.919922 C 269.68963 88.980542 268.26905 90.534218 267.5957 92.607422 C 266.92262 94.680626 267.05402 97.265723 267.69141 99.214844 A 0.23366807 0.23366807 0 0 1 267.70703 99.279297 C 267.98865 110.9035 267.65934 122.52421 267.50586 134.13867 C 238.52923 141.58865 215.11865 165.83233 204.09375 193.75 C 203.6162 193.7277 203.15067 193.69923 202.625 193.70703 C 188.88293 193.94977 152.9038 203.57331 156.43555 182.86523 L 156.43555 71.648438 C 181.36923 70.800066 225.43896 74.757708 249.96875 71.472656 C 254.52235 68.520903 256.556 61.523702 254.95703 56.769531 C 230.72517 58.826776 187.14275 56.96825 162.125 56.757812 L 162.125 56.755859 C 160.11481 56.738679 158.10543 56.733304 156.09961 56.740234 z M 274.28125 57.304688 C 272.09701 57.398908 270.30405 58.298367 268.92383 59.677734 C 267.34648 61.254176 266.31999 63.464283 265.93164 65.796875 C 265.54328 68.129472 265.79403 70.580687 266.75195 72.634766 C 267.70987 74.688872 269.36272 76.34711 271.8125 77.132812 A 0.23366807 0.23366807 0 0 1 271.8418 77.142578 C 280.89845 81.41915 290.05222 68.707467 283.82227 61.181641 A 0.23366807 0.23366807 0 0 1 283.81641 61.173828 C 281.86088 58.564928 278.49748 57.194439 275.26562 57.316406 A 0.23366807 0.23366807 0 0 1 275.24023 57.314453 C 274.91212 57.293973 274.59335 57.291901 274.28125 57.306641 L 274.28125 57.304688 z M 296.83984 68.914062 L 296.54102 68.996094 C 291.54055 72.155099 297.25841 78.919896 300.5332 81.292969 C 334.8209 118.64069 346.9423 174.4976 331.69531 222.81836 C 324.28955 248.03589 309.72657 270.94164 290.67188 288.89648 C 289.74327 293.35789 296.87961 293.92172 298.41797 290.16016 C 342.15126 248.26086 356.47856 179.83247 334.11719 123.49414 C 325.52828 103.18498 313.92747 82.949178 296.83984 68.914062 z M 41.226562 211.50391 C 36.241585 215.19729 41.990059 222.18911 42.539062 226.86328 C 61.571252 291.0819 127.98094 338.12483 195.23438 334.48047 C 218.77756 333.47085 243.37409 328.09946 263.18164 314.77539 C 263.85576 310.23963 256.82946 309.9564 254.50195 312.74023 C 203.71248 339.42214 137.36407 330.44308 94.238281 293.00781 C 70.582252 273.19838 53.57766 245.81881 45.736328 216.05859 C 44.870547 214.11104 43.382216 212.01437 41.226562 211.50391 z "
     id="monogram" />
  <path
     inkscape:connector-curvature="0"
     id="path4145"
     d="m -212.9255,24.997386 c -27.05308,0.691621 -54.53678,7.840785 -77.13216,23.048103 -0.62781,4.439444 6.1046,3.167216 8.15468,1.321965 19.3936,-8.682044 39.5478,-16.617965 61.05382,-17.478359 26.43624,-2.127632 53.21138,3.736896 76.97202,15.071091 3.82697,-0.446378 8.3033,6.207914 11.09413,2.020973 0.33576,-6.445648 -8.76004,-6.593092 -12.78012,-9.513113 -20.79856,-10.019624 -44.30175,-14.735846 -67.36237,-14.47066 z m 109.46563,43.999329 c -5.00047,3.159005 0.71816,9.92244 3.992954,12.295512 34.287692,37.347713 46.409623,93.206153 31.162643,141.526903 -7.405761,25.21753 -21.969511,48.12314 -41.024207,66.07798 -0.92859,4.46141 6.20779,5.02405 7.74615,1.26249 43.733284,-41.89929 58.060911,-110.32789 35.699542,-166.66621 -8.58891,-20.30916 -20.190035,-40.544211 -37.277652,-54.579325 l -0.29943,0.0827 z M -358.77318,211.50369 c -4.98498,3.69338 0.76406,10.68523 1.31307,15.3594 19.03218,64.21861 85.44036,111.26263 152.69379,107.61827 23.54319,-1.00962 48.1405,-6.38255 67.94805,-19.70662 0.67413,-4.53576 -6.35265,-4.81819 -8.68016,-2.03436 -50.78946,26.6819 -117.13845,17.7035 -160.26423,-19.73176 -23.65603,-19.80943 -40.66051,-47.18912 -48.50184,-76.94933 -0.86578,-1.94755 -2.35303,-4.04514 -4.50868,-4.5556 z"
     style="opacity:1;fill:#303030;fill-opacity:1;fill-rule:nonzero;stroke:none;stroke-width:4;stroke-linecap:round;stroke-linejoin:round;stroke-miterlimit:4;stroke-dasharray:none;stroke-dashoffset:0;stroke-opacity:0.14682539" />
</svg>
