<?xml version="1.0" encoding="UTF-8" standalone="no"?>
<!-- Created with Inkscape (http://www.inkscape.org/) -->

<svg
   xmlns:dc="http://purl.org/dc/elements/1.1/"
   xmlns:cc="http://creativecommons.org/ns#"
   xmlns:rdf="http://www.w3.org/1999/02/22-rdf-syntax-ns#"
   xmlns:svg="http://www.w3.org/2000/svg"
   xmlns="http://www.w3.org/2000/svg"
   xmlns:sodipodi="http://sodipodi.sourceforge.net/DTD/sodipodi-0.dtd"
   xmlns:inkscape="http://www.inkscape.org/namespaces/inkscape"
   version="1.1"
   id="svg2"
   width="224"
   height="224"
   viewBox="0 0 224 224"
   sodipodi:docname="favicon.svg"
   inkscape:version="0.92.0 r"
   inkscape:export-filename="/home/lip/code/qr/img/favicon72.png"
   inkscape:export-xdpi="30.857143"
   inkscape:export-ydpi="30.857143">
  <metadata
     id="metadata8">
    <rdf:RDF>
      <cc:Work
         rdf:about="">
        <dc:format>image/svg+xml</dc:format>
        <dc:type
           rdf:resource="http://purl.org/dc/dcmitype/StillImage" />
        <dc:title></dc:title>
      </cc:Work>
    </rdf:RDF>
  </metadata>
  <defs
     id="defs6" />
  <sodipodi:namedview
     pagecolor="#ffffff"
     bordercolor="#666666"
     borderopacity="1"
     objecttolerance="10"
     gridtolerance="10"
     guidetolerance="10"
     inkscape:pageopacity="0"
     inkscape:pageshadow="2"
     inkscape:window-width="1366"
     inkscape:window-height="713"
     id="namedview4"
     showgrid="false"
     inkscape:zoom="1.489975"
     inkscape:cx="203.83275"
     inkscape:cy="92.128965"
     inkscape:window-x="0"
     inkscape:window-y="27"
     inkscape:window-maximized="1"
     inkscape:current-layer="svg2">
    <sodipodi:guide
       position="0,0"
       orientation="0,224"
       id="guide4489"
       inkscape:locked="false" />
    <sodipodi:guide
       position="224,0"
       orientation="-224,0"
       id="guide4491"
       inkscape:locked="false" />
    <sodipodi:guide
       position="224,224"
       orientation="0,-224"
       id="guide4493"
       inkscape:locked="false" />
    <sodipodi:guide
       position="0,224"
       orientation="224,0"
       id="guide4495"
       inkscape:locked="false" />
  </sodipodi:namedview>
  <rect
     style="opacity:1;fill:#141414;fill-opacity:1;fill-rule:nonzero;stroke:none;stroke-width:0.59999996;stroke-linecap:round;stroke-linejoin:round;stroke-miterlimit:4;stroke-dasharray:none;stroke-opacity:1;paint-order:normal"
     id="rect4497"
     width="218.6308"
     height="218.6308"
     x="2.6846087"
     y="2.6846087"
     ry="15.592858" />
  <path
     style="fill:#ffffff;fill-opacity:1"
     d="M 149.1582 96.183594 C 139.66929 96.241182 129.21375 98.634798 123.83203 102.4043 C 120.69197 104.60369 121.54431 104.44988 132.16797 100.89062 C 140.52159 98.091903 142.35087 97.825825 150.47461 98.232422 C 156.80312 98.549167 161.7163 99.477736 166.91797 101.33984 C 170.99823 102.8005 174.55548 103.7785 174.82227 103.51172 C 175.70944 102.62454 164.39935 98.178468 158.10156 96.939453 C 155.37727 96.403481 152.32117 96.164398 149.1582 96.183594 z M 177.97656 107 C 175.89677 107 174.00471 109.75862 174.71875 111.75 C 175.45306 113.79791 179.78933 113.24273 180.49805 111.00977 C 181.30728 108.46012 180.38911 107 177.97656 107 z M 155.55273 107.13281 C 152.53535 107.13386 149.22188 107.15954 145.75 107.20898 C 122.02103 107.54694 120.14161 107.71041 114.55859 109.92773 C 106.66012 113.06464 99.882006 119.83066 97.523438 126.93164 C 94.034629 137.43546 97.089902 153.25778 103.77344 159.29688 C 105.60656 160.95324 105.88905 160.96836 107.38086 159.47656 C 109.49535 157.36206 109.427 156.68864 106.85938 154.4043 C 103.35621 151.28764 101.04548 145.03974 101.02148 138.61523 C 100.96317 122.99164 109.03435 114.63948 126.26758 112.48633 L 132 111.76953 L 132 132.99805 L 132 154.22656 L 127.58789 153.56641 C 124.78882 153.14666 122.93009 153.30333 122.50195 153.99609 C 121.27543 155.98064 124.14797 158 128.19727 158 L 132.15039 158 L 131.82617 172.08203 C 131.54745 184.13794 131.24786 186.3506 129.74023 187.45117 C 128.21367 188.56557 128.17145 188.89782 129.43359 189.94531 C 131.74869 191.86667 135.32862 190.82345 136.10938 188 C 136.4896 186.625 136.84559 179.06245 136.90039 171.19336 L 137 156.88477 L 144.49414 157.19336 L 151.98828 157.5 L 151.99414 162.34961 C 152.00593 171.15775 156.42268 177.13765 169.17773 185.61719 C 172.86632 188.06936 176.80958 191.57491 177.94141 193.40625 C 182.80514 201.27593 178.5147 210.03265 169.82617 209.96875 C 167.44637 209.95125 164.64705 209.28989 163.60352 208.5 C 161.26436 206.72939 160 207.39813 160 210.40625 C 160 211.79098 160.88837 213.12261 162.25 213.7793 C 165.53252 215.36239 173.65802 215.22701 176.92969 213.53516 C 184.48687 209.62719 187.50505 201.73932 184.35352 194.12695 C 182.7683 190.29793 180.7232 188.20592 172.50391 182 C 158.74818 171.61382 155.54581 166.11279 157.98438 157.05664 C 162.18641 141.45145 185.83538 130.4841 189.93359 142.24023 C 192.2872 148.99181 185.3857 159.99911 176.50781 163.65039 C 171.29101 165.79595 171.16266 167.372 176.17188 167.80078 C 179.02038 168.04461 180.66264 167.33515 184.79297 164.07031 C 191.21017 158.9978 195.15794 152.45676 195.24414 146.75781 C 195.36097 139.02933 191.40451 134.29633 183.38281 132.57031 C 180.35024 131.91779 180.2518 131.72163 179.73828 125.32422 C 179.24595 119.19083 177.80759 116.38231 175.79688 117.625 C 175.35811 117.89617 175 121.43254 175 125.48242 L 175 132.8457 L 171.49414 134.00195 C 166.78884 135.55484 157.78531 143.93209 155.58984 148.80078 C 153.88999 152.57036 153.57923 152.75959 148.12109 153.33008 C 140.98706 154.07573 138.12312 153.35057 137.45508 150.63086 C 137.16721 149.45908 137.0585 140.175 137.21484 130 L 137.5 111.5 L 153.2793 111.5 C 166.21422 111.5 169.2306 111.2296 170.01367 110 C 170.53906 109.175 170.97637 108.12802 170.98438 107.67383 C 170.99069 107.33319 164.60489 107.12966 155.55273 107.13281 z M 184.57812 111.50391 C 183.64887 111.49504 183.87586 112.65197 185.46484 113.9707 C 188.14805 116.19757 193.68952 125.42833 195.85352 131.27539 C 201.76889 147.25849 197.99024 167.77673 186.78906 180.50195 C 184.70474 182.86986 183 185.0762 183 185.4043 C 183 187.2368 185.45005 185.37416 189.125 180.75 C 200.47365 166.47011 203.70625 146.89104 197.45508 130.2832 C 194.7254 123.03112 188.66821 113.42911 185.88477 111.93945 C 185.32599 111.64041 184.88788 111.50686 184.57812 111.50391 z M 98.435547 159.20312 C 97.266222 159.00273 99.026706 164.42633 102.52148 171.61914 C 108.52652 183.97848 121.57239 194.39214 136.20508 198.50586 C 143.52774 200.5645 157.67916 199.90148 165.44141 197.13477 C 171.50756 194.9726 173.82437 193.49233 172.7793 192.44727 C 172.45676 192.12473 170.46345 192.73122 168.34766 193.79492 C 158.99488 198.49695 144.39614 199.19732 132.83594 195.5 C 119.71435 191.30329 106.57343 178.76413 101.91797 165.99609 C 100.70336 162.6649 99.259343 159.66045 98.708984 159.32031 C 98.604637 159.25582 98.513502 159.21648 98.435547 159.20312 z "
     id="path4487" />
  <path
     sodipodi:nodetypes="cscccccscccccscscccscccccsccsccccccscccccsccscssssscccscsssccccscsscsscssscsccsscssccccccsscccssscssscsscsscccsccssscscssscccccccssccccscscccscccccscsscccccsscsssccscscccscccccscccccscscccscccccscccssccccssscccccccscsscccccccsss"
     inkscape:connector-curvature="0"
     id="path4500"
     d="m 18.458927,205.75356 c -0.269183,-0.70148 -0.370062,-14.7705 -0.224176,-31.26449 L 18.5,144.5 h 31 31 v 31 31 l -30.775825,0.26449 c -24.218986,0.20814 -30.880097,-0.007 -31.265248,-1.01093 z M 71.5,175.5 v -22 h -22 -22 l -0.270971,20.97416 c -0.149033,11.53579 -0.04728,21.55709 0.226125,22.26957 0.39037,1.01729 5.171871,1.23753 22.27097,1.02584 L 71.5,197.5 Z M 36.446742,187.72181 C 36.1643,186.98578 36.060739,181.00976 36.216605,174.44178 L 36.5,162.5 h 13 13 v 13 13 l -12.769863,0.28003 c -9.941597,0.218 -12.8836,-0.0164 -13.283395,-1.05822 z M 97.2077,205.25615 c -0.638828,-0.63881 -2.226814,-4.79457 -1.161504,-8.93535 v -7.77384 l 6.897574,7.62866 c 3.79366,4.19577 6.92972,8.21667 6.96902,8.93535 0.0883,1.61657 -11.105798,1.74449 -12.70509,0.14513 z M 18.409659,133.62517 c -0.307344,-0.80092 -0.412748,-2.73174 -0.234233,-4.2907 L 18.5,126.5 h 8.5 8.5 v 4 4 l -8.265768,0.2907 c -6.508407,0.22889 -8.384574,-0.0189 -8.824573,-1.16553 z m 27.081017,0.14854 C 45.235062,133.07317 44.907591,127.1 44.762962,120.5 L 44.5,108.5 40.5,108 c -3.916667,-0.48958 -4,-0.58333 -4,-4.5 0,-3.916667 0.08333,-4.010417 4,-4.5 3.809524,-0.47619 4.02381,-0.690476 4.5,-4.5 0.489583,-3.916667 0.583333,-4 4.5,-4 h 4 l 0.5,8.5 0.5,8.5 h 4 c 3.916667,0 4.010417,-0.0833 4.5,-4 0.489583,-3.916667 0.583333,-4 4.5,-4 3.916667,0 4.010417,0.08333 4.5,4 0.489583,3.91667 0.583333,4 4.5,4 3.916667,0 4.010417,-0.0833 4.5,-4 l 0.5,-4 h 8.5 8.5 l 0.316991,3.86114 c 0.229706,2.79796 0.842762,3.99863 2.226429,4.36047 1.73928,0.45483 1.61231,0.86822 -1.424789,4.63886 -1.833826,2.27674 -4.579091,6.2994 -6.10059,8.93925 -2.736232,4.74745 -2.816741,4.79646 -7.392201,4.5 C 81.541807,125.50271 81.495481,125.46385 81,121.5 c -0.489583,-3.91667 -0.583333,-4 -4.5,-4 h -4 v 4 c 0,3.91667 0.08333,4.01042 4,4.5 3.916667,0.48958 4,0.58333 4,4.5 v 4 l -17.272287,0.27371 c -13.279026,0.21043 -17.379734,-0.0208 -17.737037,-1 z M 27.41739,115.64532 c -0.311596,-0.81201 -0.420479,-2.75189 -0.241964,-4.31085 C 27.471562,108.74835 27.850471,108.5 31.5,108.5 h 4 v 4 c 0,3.90193 -0.09213,4.00762 -3.758037,4.31084 -2.607886,0.21571 -3.931425,-0.141 -4.324573,-1.16552 z M 189.5429,103.79374 c -4.86696,-3.52766 -5.30302,-4.29732 -5.04715,-8.908409 l 0.28007,-5.047145 h 10.72518 10.72519 v 5.047145 c 0,4.940604 -0.10637,5.060464 -5.03973,5.678039 -4.1726,0.52234 -5.14955,1.18671 -5.67804,3.86127 l -0.63831,3.23039 z M 72.41739,97.645317 C 72.105794,96.833313 71.996911,94.893433 72.175426,93.334473 72.471562,90.74835 72.850471,90.5 76.5,90.5 h 4 v 4 c 0,3.901933 -0.09213,4.007621 -3.758037,4.310844 -2.607886,0.215711 -3.931425,-0.141 -4.324573,-1.165527 z m 53.05447,-6.552165 C 124.93733,90.570345 122.925,89.99801 121,89.821297 117.63688,89.512566 117.5,89.343563 117.5,85.5 c 0,-3.916667 0.0833,-4.010417 4,-4.5 3.80952,-0.47619 4.02381,-0.690476 4.5,-4.5 0.48958,-3.916667 0.58333,-4 4.5,-4 h 4 l 0.287,8.6176 0.287,8.617599 -2.787,0.56237 c -1.53285,0.309303 -3.47467,0.828718 -4.31514,1.154255 -0.84048,0.325537 -1.96548,0.164135 -2.5,-0.358672 z M 99.41739,88.645317 C 99.105794,87.833313 98.996911,85.893433 99.175426,84.334473 99.471562,81.74835 99.850471,81.5 103.5,81.5 h 4 v 4 c 0,3.901933 -0.0921,4.007621 -3.75804,4.310844 -2.60788,0.215711 -3.931422,-0.141 -4.32457,-1.165527 z M 18.458927,79.75356 C 18.189744,79.05208 18.088865,64.98306 18.234751,48.489071 L 18.43277,26.101025 18.5,18.5 H 23.966102 49.5 h 31 v 31 31 L 49.724175,80.764489 C 25.505189,80.972629 18.844078,80.757249 18.458927,79.75356 Z M 71.5,49.5 v -22 h -22 -22 l -0.270971,20.97416 c -0.149033,11.535788 -0.04728,21.557094 0.226125,22.269569 0.39037,1.017289 5.171871,1.237533 22.27097,1.02584 L 71.5,71.5 Z M 36.446742,61.721809 C 36.1643,60.985776 36.060739,55.009765 36.216605,48.441784 L 36.5,36.5 h 13 13 v 13 13 l -12.769863,0.280025 c -9.941597,0.218006 -12.8836,-0.01637 -13.283395,-1.058216 z M 90.466178,79.772456 C 90.181416,79.030378 90.072532,71.015498 90.224214,61.961612 L 90.5,45.5 h 4 4 l 0.5,8.5 0.5,8.5 4,0.5 c 3.91667,0.489583 4,0.583333 4,4.5 0,3.916667 -0.0833,4.010417 -4,4.5 -3.809524,0.47619 -4.02381,0.690476 -4.5,4.5 -0.474669,3.797353 -0.690388,4.015748 -4.258037,4.310844 -2.465719,0.203951 -3.93608,-0.153131 -4.275785,-1.038388 z m 17.951212,-0.127139 c -0.3116,-0.812004 -0.42048,-2.751884 -0.24196,-4.310844 C 108.47156,72.74835 108.85047,72.5 112.5,72.5 h 4 v 4 c 0,3.901933 -0.0921,4.007621 -3.75804,4.310844 -2.60788,0.215711 -3.93142,-0.141 -4.32457,-1.165527 z m 36.04154,0.108243 c -0.26919,-0.70148 -0.37007,-14.7705 -0.22418,-31.264489 L 144.5,18.5 h 31 31 v 31 31 l -30.77582,0.264489 c -24.21899,0.20814 -30.8801,-0.0072 -31.26525,-1.010929 z M 197.5,49.5 v -22 h -22 -22 l -0.27097,20.97416 c -0.14903,11.535788 -0.0473,21.557094 0.22612,22.269569 0.39037,1.017289 5.17188,1.237533 22.27097,1.02584 L 197.5,71.5 Z m -35.05326,12.221809 c -0.28244,-0.736033 -0.386,-6.712044 -0.23013,-13.280025 L 162.5,36.5 h 13 13 v 13 13 l -12.76986,0.280025 c -9.9416,0.218006 -12.8836,-0.01637 -13.2834,-1.058216 z m -44.91178,9.089035 C 117.28803,70.08988 116.95414,68.15 116.793,66.5 116.53075,63.814885 116.08015,63.447519 112.5,63 c -3.91667,-0.489583 -4,-0.583333 -4,-4.5 0,-3.916667 0.0833,-4.010417 4,-4.5 l 4,-0.5 0.5,-8.5 0.5,-8.5 4,-0.5 c 3.80952,-0.47619 4.02381,-0.690476 4.5,-4.5 0.48958,-3.916667 0.58333,-4 4.5,-4 h 4 v 13 13 l -4,0.5 -4,0.5 -0.5,8.5 -0.5,8.5 -3.75804,0.310844 c -2.4355,0.201452 -3.91603,-0.15047 -4.207,-1 z M 90.444997,34.71726 C 90.148585,33.944824 90.039702,29.979944 90.203033,25.906415 L 90.5,18.5 h 13 13 v 4 4 l -8.5,0.5 -8.5,0.5 -0.5,4 c -0.474669,3.797353 -0.690388,4.015748 -4.258037,4.310844 -2.530601,0.209318 -3.934059,-0.147864 -4.296966,-1.093584 z"
     style="fill:#ffffff;fill-opacity:1" />
</svg>
