<?xml version="1.0" encoding="UTF-8" standalone="no"?>
<svg
   xmlns:dc="http://purl.org/dc/elements/1.1/"
   xmlns:cc="http://creativecommons.org/ns#"
   xmlns:rdf="http://www.w3.org/1999/02/22-rdf-syntax-ns#"
   xmlns:svg="http://www.w3.org/2000/svg"
   xmlns="http://www.w3.org/2000/svg"
   xmlns:sodipodi="http://sodipodi.sourceforge.net/DTD/sodipodi-0.dtd"
   xmlns:inkscape="http://www.inkscape.org/namespaces/inkscape"
   height="400"
   width="400"
   version="1.1"
   viewBox="0 0 399.99998 399.99998"
   id="svg2"
   inkscape:version="0.92.0 r"
   sodipodi:docname="flowinspace.svg"
   inkscape:export-filename="/home/lip/code/qr/img/flowinspace.png"
   inkscape:export-xdpi="60"
   inkscape:export-ydpi="60">
  <metadata
     id="metadata12">
    <rdf:RDF>
      <cc:Work
         rdf:about="">
        <dc:format>image/svg+xml</dc:format>
        <dc:type
           rdf:resource="http://purl.org/dc/dcmitype/StillImage" />
      </cc:Work>
    </rdf:RDF>
  </metadata>
  <defs
     id="defs10" />
  <sodipodi:namedview
     pagecolor="#ffffff"
     bordercolor="#666666"
     borderopacity="1"
     objecttolerance="10"
     gridtolerance="10"
     guidetolerance="10"
     inkscape:pageopacity="0"
     inkscape:pageshadow="2"
     inkscape:window-width="1366"
     inkscape:window-height="713"
     id="namedview8"
     showgrid="false"
     inkscape:zoom="0.33469853"
     inkscape:cx="94.970902"
     inkscape:cy="-36.550398"
     inkscape:window-x="0"
     inkscape:window-y="27"
     inkscape:window-maximized="1"
     inkscape:current-layer="svg2">
    <sodipodi:guide
       position="0,0"
       orientation="0,400"
       id="guide4140"
       inkscape:locked="false" />
    <sodipodi:guide
       position="399.99998,0"
       orientation="-400,0"
       id="guide4142"
       inkscape:locked="false" />
    <sodipodi:guide
       position="399.99998,399.99998"
       orientation="0,-400"
       id="guide4144"
       inkscape:locked="false" />
    <sodipodi:guide
       position="0,399.99998"
       orientation="400,0"
       id="guide4146"
       inkscape:locked="false" />
  </sodipodi:namedview>
  <circle
     style="opacity:1;fill:#ffffff;fill-opacity:1;fill-rule:nonzero;stroke:none;stroke-width:4;stroke-linecap:round;stroke-linejoin:round;stroke-miterlimit:4;stroke-dasharray:none;stroke-dashoffset:0;stroke-opacity:0.14682539"
     id="path4148"
     cx="199.99997"
     cy="199.99997"
     r="199.97661" />
  <path
     style="opacity:1;fill:#303030;fill-opacity:1;fill-rule:nonzero;stroke:none;stroke-width:4;stroke-linecap:round;stroke-linejoin:round;stroke-miterlimit:4;stroke-dasharray:none;stroke-dashoffset:0;stroke-opacity:0.14682539"
     d="M 187.07422 24.998047 C 160.02114 25.689668 132.53679 32.837602 109.94141 48.044922 C 109.31361 52.484366 116.04759 51.212439 118.09766 49.367188 C 137.49126 40.685142 157.64436 32.749066 179.15039 31.888672 C 205.58663 29.76104 232.36239 35.626741 256.12305 46.960938 C 259.95002 46.514559 264.42597 53.16741 267.2168 48.980469 C 267.55257 42.53482 258.45758 42.388771 254.4375 39.46875 C 233.63893 29.449125 210.13484 24.732861 187.07422 24.998047 z M 156.09961 56.740234 L 156.0957 56.742188 C 126.00818 56.845522 96.487823 59.989161 69.908203 75.914062 C 21.851391 105.75108 20.584491 181.91815 61.005859 218.48242 C 69.28368 218.02158 78.147804 203.43666 67.525391 200.69922 C 41.179541 174.00124 42.244733 126.67797 65.931641 98.759766 C 84.856136 78.648148 114.28403 75.024021 140.4375 73.728516 L 140.4375 196.06641 C 133.06479 199.88823 109.48925 188.85451 110.46484 200.48242 C 112.22677 217.39571 135.79708 203.35773 140.4375 211.78711 C 138.38811 238.29575 144.60553 266.10451 137.08398 291.9082 C 136.2924 298.82005 123.26212 295.72886 131.73242 303.94141 C 141.3003 313.2113 153.27524 308.55131 153.69531 296.59766 C 158.90504 267.08092 154.89581 236.80381 156.15625 206.98828 C 168.39611 206.19717 186.42935 210.23561 199.57422 208.24609 C 199.24291 209.6879 198.93409 211.13269 198.67188 212.58008 C 193.1443 245.22141 217.52572 272.54633 244.24414 287.18945 C 263.46903 298.61531 288.06704 316.6659 281.82227 342.46289 C 277.15934 366.54123 242.79818 371.23185 228.20898 353.88867 C 220.06661 359.75131 219.04301 371.34117 229.49023 374.61328 C 258.36828 389.72084 300.28267 370.74043 300.0918 335.75391 C 301.91883 298.7496 262.73184 284.16078 238.87109 264.41797 C 216.31364 249.03798 208.84554 217.29644 222.63281 193.68164 C 236.99013 168.04831 265.59758 145.36004 296.27539 148.46875 C 316.53648 151.82311 317.43385 178.65574 308.10742 192.75391 C 297.55447 211.2426 278.60309 230.00465 256.21484 229.54102 C 260.74158 246.72068 281.22019 240.96742 291.17383 232.48633 C 317.02475 215.74299 342.00389 180.26658 321.98828 149.9707 C 313.09069 137.14944 296.5704 133.22561 281.67578 132.40625 C 281.91427 119.02555 282.98295 105.4661 280.33594 92.513672 C 278.51135 90.035881 275.32065 88.799702 272.2793 88.919922 A 0.23366807 0.23366807 0 0 1 272.27539 88.919922 C 269.68963 88.980542 268.26905 90.534218 267.5957 92.607422 C 266.92262 94.680626 267.05402 97.265723 267.69141 99.214844 A 0.23366807 0.23366807 0 0 1 267.70703 99.279297 C 267.98865 110.9035 267.65934 122.52421 267.50586 134.13867 C 238.52923 141.58865 215.11865 165.83233 204.09375 193.75 C 203.6162 193.7277 203.15067 193.69923 202.625 193.70703 C 188.88293 193.94977 152.9038 203.57331 156.43555 182.86523 L 156.43555 71.648438 C 181.36923 70.800066 225.43896 74.757708 249.96875 71.472656 C 254.52235 68.520903 256.556 61.523702 254.95703 56.769531 C 230.72517 58.826776 187.14275 56.96825 162.125 56.757812 L 162.125 56.755859 C 160.11481 56.738679 158.10543 56.733304 156.09961 56.740234 z M 274.28125 57.304688 C 272.09701 57.398908 270.30405 58.298367 268.92383 59.677734 C 267.34648 61.254176 266.31999 63.464283 265.93164 65.796875 C 265.54328 68.129472 265.79403 70.580687 266.75195 72.634766 C 267.70987 74.688872 269.36272 76.34711 271.8125 77.132812 A 0.23366807 0.23366807 0 0 1 271.8418 77.142578 C 280.89845 81.41915 290.05222 68.707467 283.82227 61.181641 A 0.23366807 0.23366807 0 0 1 283.81641 61.173828 C 281.86088 58.564928 278.49748 57.194439 275.26562 57.316406 A 0.23366807 0.23366807 0 0 1 275.24023 57.314453 C 274.91212 57.293973 274.59335 57.291901 274.28125 57.306641 L 274.28125 57.304688 z M 296.83984 68.914062 L 296.54102 68.996094 C 291.54055 72.155099 297.25841 78.919896 300.5332 81.292969 C 334.8209 118.64069 346.9423 174.4976 331.69531 222.81836 C 324.28955 248.03589 309.72657 270.94164 290.67188 288.89648 C 289.74327 293.35789 296.87961 293.92172 298.41797 290.16016 C 342.15126 248.26086 356.47856 179.83247 334.11719 123.49414 C 325.52828 103.18498 313.92747 82.949178 296.83984 68.914062 z M 41.226562 211.50391 C 36.241585 215.19729 41.990059 222.18911 42.539062 226.86328 C 61.571252 291.0819 127.98094 338.12483 195.23438 334.48047 C 218.77756 333.47085 243.37409 328.09946 263.18164 314.77539 C 263.85576 310.23963 256.82946 309.9564 254.50195 312.74023 C 203.71248 339.42214 137.36407 330.44308 94.238281 293.00781 C 70.582252 273.19838 53.57766 245.81881 45.736328 216.05859 C 44.870547 214.11104 43.382216 212.01437 41.226562 211.50391 z "
     id="monogram" />
</svg>
